<svg width="100" height="100" viewBox="0 0 100 100" fill="none" xmlns="http://www.w3.org/2000/svg">
<path d="M29 53C29.8284 53 30.5 53.6716 30.5 54.5C30.5 55.3284 29.8284 56 29 56H17.5C16.6716 56 16 55.3284 16 54.5C16 53.6716 16.6716 53 17.5 53H29ZM81.5 53C82.3284 53 83 53.6716 83 54.5C83 55.3284 82.3284 56 81.5 56H62.5C61.6716 56 61 55.3284 61 54.5C61 53.6716 61.6716 53 62.5 53H81.5ZM41 47.5C41.8284 47.5 42.5 48.1716 42.5 49C42.5 49.8284 41.8284 50.5 41 50.5H17.5C16.6716 50.5 16 49.8284 16 49C16 48.1716 16.6716 47.5 17.5 47.5H41ZM81.5 47.5C82.3284 47.5 83 48.1716 83 49C83 49.8284 82.3284 50.5 81.5 50.5H46.5C45.6716 50.5 45 49.8284 45 49C45 48.1716 45.6716 47.5 46.5 47.5H81.5ZM30.5 42C31.3284 42 32 42.6716 32 43.5C32 44.3284 31.3284 45 30.5 45H17.5C16.6716 45 16 44.3284 16 43.5C16 42.6716 16.6716 42 17.5 42H30.5ZM81.5 42C82.3284 42 83 42.6716 83 43.5C83 44.3284 82.3284 45 81.5 45H35.5C34.6716 45 34 44.3284 34 43.5C34 42.6716 34.6716 42 35.5 42H81.5Z" fill="white"/>
<path d="M56 52C57.3807 52 58.5 53.1193 58.5 54.5C58.5 55.8807 57.3807 57 56 57H35.5C34.1193 57 33 55.8807 33 54.5C33 53.1193 34.1193 52 35.5 52H56Z" fill="white"/>
</svg>
